<svg xmlns="http://www.w3.org/2000/svg" viewBox="0 0 100 100">
  <defs>
    <linearGradient id="globeGrad" x1="0%" y1="0%" x2="100%" y2="100%">
      <stop offset="0%" style="stop-color:#3b82f6"/>
      <stop offset="100%" style="stop-color:#1d4ed8"/>
    </linearGradient>
  </defs>
  <circle cx="50" cy="50" r="45" fill="url(#globeGrad)" stroke="#1e3a5f" stroke-width="2"/>
  <ellipse cx="50" cy="50" rx="45" ry="20" fill="none" stroke="#ffffff" stroke-width="1.5" opacity="0.3"/>
  <ellipse cx="50" cy="50" rx="20" ry="45" fill="none" stroke="#ffffff" stroke-width="1.5" opacity="0.3"/>
  <line x1="5" y1="50" x2="95" y2="50" stroke="#ffffff" stroke-width="1.5" opacity="0.3"/>
  <path d="M15 35 Q50 25 85 35 Q50 45 15 35" fill="#22c55e" opacity="0.9"/>
  <path d="M20 55 Q50 65 80 55 Q50 50 20 55" fill="#22c55e" opacity="0.7"/>
  <circle cx="30" cy="40" r="3" fill="#fbbf24"/>
  <circle cx="65" cy="35" r="3" fill="#fbbf24"/>
  <circle cx="45" cy="60" r="3" fill="#fbbf24"/>
  <circle cx="70" cy="55" r="3" fill="#fbbf24"/>
  <path d="M35 30 L35 20 L40 20 L40 30 M60 25 L60 15 L65 15 L65 25" stroke="#ef4444" stroke-width="2" fill="none" stroke-linecap="round"/>
  <polygon points="35,20 40,20 40,15 35,15" fill="#ef4444"/>
  <polygon points="60,15 65,15 65,10 60,10" fill="#ef4444"/>
</svg>